<?xml version="1.0" standalone="no"?>
<!DOCTYPE svg PUBLIC "-//W3C//DTD SVG 20010904//EN"
 "http://www.w3.org/TR/2001/REC-SVG-20010904/DTD/svg10.dtd">
<svg version="1.0" xmlns="http://www.w3.org/2000/svg"
 width="37pt" height="30pt" viewBox="0 0 538.000000 464.000000"
 preserveAspectRatio="xMidYMid meet" style="border-radius: 8px;">

<g transform="translate(0.000000,464.000000) scale(0.100000,-0.100000)"
fill="#000000" stroke="none">
<path d="M0 2320 l0 -2320 2690 0 2690 0 0 2320 0 2320 -2690 0 -2690 0 0
-2320z m2666 1369 c77 -23 332 -164 394 -216 63 -54 82 -166 37 -219 l-23 -27
-175 103 c-254 150 -446 269 -459 285 -9 11 -2 19 35 41 37 21 85 43 121 54 1
0 33 -9 70 -21z m-474 -11 c79 -23 139 -97 162 -198 5 -19 32 -40 109 -86 489
-291 579 -349 598 -386 16 -32 19 -60 19 -207 0 -93 -4 -180 -9 -193 -5 -13
-40 -57 -78 -98 l-69 -74 -29 52 c-21 39 -36 54 -62 63 -55 18 -53 36 12 93
l58 52 -13 89 c-19 140 -15 136 -334 320 l-277 158 -51 -24 c-37 -17 -68 -24
-112 -23 -68 0 -107 16 -155 65 -52 52 -66 86 -66 169 0 64 4 82 28 122 56 96
163 138 269 106z m1306 -114 c20 -8 52 -29 70 -47 106 -101 105 -249 -1 -352
l-52 -50 -7 -370 -7 -369 -28 -40 c-22 -31 -61 -58 -179 -123 l-152 -84 -83
15 c-46 8 -97 19 -112 25 -25 10 -27 13 -15 32 7 12 19 31 25 43 7 11 13 45
13 74 0 60 2 61 78 32 29 -11 61 -20 71 -20 27 0 146 96 170 136 20 33 21 50
21 346 l0 311 -40 35 c-133 113 -111 320 42 396 60 30 129 34 186 10z m-1571
-333 c52 -24 81 -64 63 -86 -14 -17 -499 -344 -546 -368 -17 -9 -34 -13 -38
-10 -3 4 -6 41 -6 84 0 75 1 79 40 127 37 47 150 134 299 231 74 47 120 53
188 22z m1821 -75 c26 -13 57 -35 70 -48 37 -40 52 -139 52 -348 0 -158 -3
-191 -19 -225 -27 -61 -114 -122 -157 -111 l-24 6 0 323 c0 325 5 427 22 427
5 0 30 -11 56 -24z m-1288 -223 c80 -48 150 -94 157 -102 15 -20 52 -123 63
-173 l7 -38 -51 0 c-40 0 -60 -6 -86 -25 -56 -41 -62 -36 -75 57 -9 64 -20 75
-100 109 -127 53 -128 53 -450 -134 l-280 -162 -6 -55 c-7 -65 -25 -104 -71
-147 -95 -91 -245 -83 -331 18 -103 119 -63 307 80 374 48 23 138 24 182 2
l33 -16 316 173 c175 95 331 181 347 189 17 9 50 16 75 17 38 0 64 -12 190
-87z m-123 -417 c115 -25 118 -27 81 -79 -17 -24 -22 -43 -20 -83 1 -29 -2
-55 -6 -58 -5 -3 -42 6 -82 20 l-73 26 -31 -23 c-17 -13 -50 -37 -73 -53 -23
-17 -51 -48 -63 -69 -22 -38 -22 -41 -15 -365 l7 -327 30 -34 c43 -48 61 -97
61 -161 0 -174 -169 -289 -323 -219 -82 37 -126 98 -137 189 -11 94 33 182
118 236 l39 24 0 363 c0 467 -14 428 196 543 164 91 176 94 291 70z m449 -28
c17 -11 86 -179 80 -195 -3 -7 -29 -42 -57 -78 -47 -58 -56 -65 -88 -65 -49 1
-170 25 -180 36 -15 16 -71 158 -71 179 0 24 98 152 120 157 18 5 181 -24 196
-34z m1219 -89 c61 -17 129 -91 150 -162 62 -213 -175 -387 -356 -262 l-37 26
-323 -180 c-402 -225 -362 -218 -569 -95 -80 48 -149 94 -155 103 -15 25 -55
132 -64 174 l-9 37 56 0 c43 0 62 5 88 25 44 34 60 25 68 -38 4 -29 12 -63 19
-76 15 -29 155 -91 206 -91 27 0 101 39 328 172 279 164 294 175 303 209 33
122 166 193 295 158z m-2361 -185 c14 -5 16 -48 16 -375 0 -291 -3 -371 -13
-375 -18 -6 -125 53 -141 79 -29 46 -46 175 -46 353 0 204 8 230 88 289 47 34
66 40 96 29z m805 -59 c18 -34 35 -50 67 -65 24 -10 44 -23 44 -28 0 -5 -25
-32 -55 -59 -60 -56 -61 -57 -44 -165 18 -119 15 -116 332 -291 l282 -156 60
21 c158 53 308 -55 308 -222 0 -74 -26 -132 -79 -179 -140 -123 -359 -39 -380
145 l-6 51 -333 193 c-286 167 -335 199 -353 231 -20 35 -22 52 -22 220 l0
182 37 46 c44 55 105 121 113 121 3 0 16 -20 29 -45z m1481 -356 l0 -80 -52
-56 c-52 -55 -196 -158 -311 -223 -48 -27 -65 -32 -102 -28 -63 8 -135 52
-135 84 0 21 22 39 143 118 78 51 192 123 252 160 61 38 124 77 140 87 58 36
65 29 65 -62z m-1433 -520 c294 -177 404 -249 400 -263 -6 -19 -121 -75 -155
-76 -56 0 -162 44 -297 124 -210 125 -225 142 -225 252 0 58 18 94 46 94 7 0
111 -59 231 -131z"/>
<path d="M2062 3581 c-32 -15 -47 -31 -62 -63 -25 -55 -25 -82 1 -134 36 -76
127 -102 197 -57 60 37 81 137 42 200 -40 66 -108 86 -178 54z"/>
<path d="M3350 3472 c-49 -26 -84 -97 -75 -153 13 -77 89 -135 161 -121 70 12
114 70 114 151 0 39 -6 56 -26 81 -51 60 -111 75 -174 42z"/>
<path d="M1330 2554 c-82 -70 -78 -183 9 -241 117 -78 258 61 195 193 -35 74
-143 99 -204 48z"/>
<path d="M1839 1423 c-60 -51 -74 -121 -36 -187 51 -90 154 -100 226 -22 32
34 41 119 17 165 -38 72 -145 95 -207 44z"/>
<path d="M3870 2302 c-47 -25 -83 -93 -76 -146 9 -73 70 -129 140 -129 79 0
136 60 136 143 0 109 -109 181 -200 132z"/>
<path d="M3165 1326 c-53 -24 -95 -85 -95 -138 0 -12 9 -41 21 -65 66 -137
259 -86 259 67 0 102 -100 175 -185 136z"/>
</g>
</svg>
