<svg width="32" height="44" viewBox="0 0 32 44" fill="none" xmlns="http://www.w3.org/2000/svg">
<g clip-path="url(#clip0_0_309)">
<path d="M22.0726 17.6828C21.5517 18.0017 21.1202 18.4475 20.8186 18.9786C20.5169 19.5096 20.3549 20.1086 20.3478 20.7193C20.3498 21.4066 20.5535 22.0783 20.9335 22.651C21.3135 23.2238 21.8532 23.6725 22.4857 23.9416C22.2363 24.7462 21.8672 25.5086 21.3909 26.2034C20.7093 27.1846 19.9966 28.1657 18.9122 28.1657C17.8278 28.1657 17.5489 27.5357 16.2992 27.5357C15.0805 27.5357 14.6467 28.1864 13.6552 28.1864C12.6637 28.1864 11.9718 27.2775 11.1765 26.1621C10.1259 24.5995 9.54858 22.767 9.51367 20.8845C9.51367 17.7861 11.5277 16.144 13.5106 16.144C14.5641 16.144 15.442 16.8359 16.103 16.8359C16.733 16.8359 17.7142 16.1026 18.9122 16.1026C19.5281 16.0867 20.1386 16.2225 20.6897 16.4981C21.2408 16.7736 21.7157 17.1805 22.0726 17.6828ZM18.3442 14.791C18.8723 14.1697 19.1712 13.3861 19.1911 12.571C19.192 12.4635 19.1816 12.3563 19.1601 12.251C18.2529 12.3396 17.4141 12.772 16.8156 13.4594C16.2824 14.0559 15.9722 14.8186 15.9377 15.6179C15.9381 15.7151 15.9485 15.812 15.9687 15.9071C16.0402 15.9206 16.1128 15.9275 16.1856 15.9278C16.6036 15.8945 17.0106 15.7766 17.3817 15.5812C17.7527 15.3857 18.0802 15.1169 18.3442 14.791Z" fill="white" fill-opacity="0.8"/>
</g>
<defs>
<clipPath id="clip0_0_309">
<rect width="14" height="44" fill="white" transform="translate(9)"/>
</clipPath>
</defs>
</svg>
